<svg
  xmlns:dc="http://purl.org/dc/elements/1.1/"
  xmlns:cc="http://creativecommons.org/ns#"
  xmlns:rdf="http://www.w3.org/1999/02/22-rdf-syntax-ns#"
  xmlns:svg="http://www.w3.org/2000/svg"
  xmlns="http://www.w3.org/2000/svg" id="svg13524" viewBox="0 0 132.29166 132.29167" height="500" width="500">
  <!-- <defs id="defs13518" /> -->
  <g transform="translate(0,-164.70832)" id="layer1">
    <g transform="matrix(1.3810257,0,0,1.3810257,-30.639372,-75.933749)" id="g18100">
      <g transform="matrix(0.15738839,0,0,0.15738839,29.790684,185.40258)" id="g4864">
        <path style="fill:#ff5023" d="m237.185 483.685c-10.02 14.885-30.208 18.829-45.094 8.811-14.885-10.02-18.829-30.208-8.811-45.094 10.02-14.885 57.833-59.87 72.718-49.85 14.886 10.019-8.793 71.248-18.813 86.133z" id="path4860" />
        <path style="fill:#ff5023" d="m270.567 483.685c10.02 14.885 30.208 18.829 45.094 8.811 14.885-10.02 18.829-30.208 8.811-45.094-10.02-14.885-57.833-59.87-72.718-49.85-14.886 10.019 8.793 71.248 18.813 86.133z" id="path4862" />
      </g>
      <g transform="matrix(0.15738839,0,0,0.15738839,29.790684,185.40258)" id="g4872" style="fill:red">
        <path style="fill:red" d="M288.489 479.511C288.489 497.454 273.943 512 256 512c-17.943.0-32.489-14.546-32.489-32.489.0-17.943 14.546-81.96 32.489-81.96 17.943.0 32.489 64.018 32.489 81.96z" id="path4866" />
        <path style="fill:red" d="m314.721 435.787c-17.79-18.825-51.008-46.287-62.969-38.236-9.277 6.244-3.575 32.375 4.464 54.785h14.374c16.874.0 32.305-6.255 44.131-16.549z" id="path4868" />
        <path style="fill:red" d="m256 397.552c-11.53-7.762-42.814 17.479-60.989 36.17 12.085 11.519 28.424 18.614 46.399 18.614h10.126c8.038-22.409 13.74-48.541 4.464-54.784z" id="path4870" />
      </g>
      <path id="path4876" d="m50.682257 234.63686c-.629237.26111-.872879 1.03169-.578097 1.64565l2.487215 5.18029c.150456.31336.425887.5485.758778.64797.333029.0994.692348.054.989804-.12539l6.002647-3.61804c.583432-.35161.771354-1.10975.419756-1.69303-.351776-.58328-1.109759-.77152-1.693027-.41976l-4.841117 2.91799-1.900149-3.95753c-.212155-.4418-.824716-.91885-1.64581-.5781z" style="fill:#cd2a00;stroke-width:.15738839" />
      <path id="path4878" d="m51.962289 225.83335c-.62404.27322-.872866 1.03168-.578084 1.64564l2.487215 5.18029c.150456.31335.425887.54849.758765.64796.333042.0995.692349.054.989817-.12539l6.002634-3.61805c.583445-.35161.771355-1.10974.419756-1.69303-.351598-.58327-1.109594-.77136-1.693027-.41974l-4.841117 2.91797-1.900136-3.95753c-.212168-.44195-.816692-.94102-1.645823-.57809z" style="fill:#cd2a00;stroke-width:.15738839" />
      <path id="path4880" d="m86.946418 226.1941-1.900162 3.95753-4.841104-2.91798c-.583433-.35176-1.341416-.16384-1.693027.41975-.351599.58329-.163828 1.34143.419756 1.69303l6.002646 3.61804c.297456.17927.65646.22491.989805.12539.332878-.0994.608309-.3346.758778-.64797l2.487202-5.18027c.29463-.61413.04138-1.36251-.578084-1.64566-.985566-.45044-1.433643.13615-1.64581.57809z" style="fill:#cd2a00;stroke-width:.15738839" />
      <path id="path4882" d="m86.683223 234.85666-1.900149 3.95753-4.841116-2.91797c-.583282-.35178-1.341416-.16369-1.693028.41974-.351598.5833-.16384 1.34143.419757 1.69303l6.002633 3.61805c.297469.17926.656636.22491.98983.12539.332866-.0995.608297-.33462.758753-.64797l2.487215-5.18029c.29463-.61412.02599-1.33087-.578084-1.64564-.801732-.41772-1.433656.13613-1.645811.57808z" style="fill:#cd2a00;stroke-width:.15738839" />
      <path id="path4884" d="m73.632546 223.96275v0c1.430186 1.50984 3.83572 1.57484 5.345543.14449 7.122787-3.74025 14.102837-7.63421 16.911375-16.02057 1.509836-1.43018 1.574827-3.83571.14449-5.34553v0c-1.430186-1.50982-3.835721-1.57483-5.345544-.14449-9.357037 1.3723-12.305763 9.58011-16.911375 16.02057-1.509672 1.43019-1.574675 3.83571-.144489 5.34553z" style="fill:#cd2a00;stroke-width:.15738839" />
      <path style="fill:#ff5023;stroke-width:.15738839" d="m88.712018 205.29238c2.878007 3.67691 8.191597 4.3244 11.868512 1.44639 3.6769-2.87799 4.3244-8.19158 1.44639-11.8685-2.878003-3.6769-13.993564-11.73677-17.670477-8.85891-3.6769 2.878 1.477567 15.60412 4.355575 19.28102z" id="path4888" />
      <path style="fill:#cd2a00;stroke-width:.15738839" d="m63.608099 223.07302v0c-1.430186 1.50983-3.835708 1.57483-5.345531.14448-7.601403-1.94722-13.035969-7.63714-16.911237-16.02041-1.509823-1.43018-1.574826-3.83571-.144476-5.34554v0c1.430198-1.50982 3.835707-1.57483 5.345543-.14448 7.978231 2.85275 14.335882 7.4274 16.911375 16.02056 1.509672 1.43003 1.574676 3.83556.144326 5.34539z" id="path4894" />
      <path style="fill:#ff5023;stroke-width:.15738839" d="m51.452211 205.29238c-2.878007 3.67691-8.191597 4.3244-11.868498 1.44639-3.676913-2.87799-4.324403-8.19158-1.446408-11.8685 2.878007-3.6769 13.993568-11.73677 17.670468-8.85891 3.676913 2.87784-1.477718 15.60412-4.355562 19.28102z" id="path4896" />
      <path style="fill:#ff5023;stroke-width:.15738839" d="M72.378411 252.48371H67.78583c-3.565953.0-6.48347-2.91767-6.48347-6.48346v-.77765c0-3.56595 2.917668-6.48346 6.48347-6.48346h4.592581c3.565941.0 6.483458 2.91767 6.483458 6.48346v.77765c164e-6 3.56579-2.917517 6.48346-6.483458 6.48346z" id="path4908" />
      <path style="fill:red;stroke-width:.15738839" d="M72.378411 238.73898H67.78583c-3.565953.0-6.48347 2.91767-6.48347 6.48346v.77766c0 .33602.02599.66637.07594.98887 1.765423 1.09762 3.846102 1.73379 6.073465 1.73379h5.260697c2.227363.0 4.308042-.63617 6.073478-1.73379.05008-.32265.07594-.65285.07594-.98887v-.77766c0-3.56579-2.917681-6.48346-6.483622-6.48346z" id="path4910" />
      <path style="fill:#ff5023;stroke-width:.15738839" d="m72.712551 244.61161h-5.260709c-4.08471.0-7.426853-3.34198-7.426853-7.42683v-.89082c0-4.08471 3.341991-7.42684 7.426853-7.42684h5.260709c4.084698.0 7.42684 3.34198 7.42684 7.42684v.89082c0 4.0847-3.342142 7.42683-7.42684 7.42683z" id="path4912" />
      <path style="fill:red;stroke-width:.15738839" d="m72.712551 228.86696h-5.260709c-4.08471.0-7.426853 3.34198-7.426853 7.42684v.89081c0 .49153.04958.97187.141815 1.43743 1.99206 1.40185 4.416782 2.22831 7.03244 2.22831h5.766069c2.615482.0 5.040354-.82661 7.032427-2.22831.09221-.46556.141803-.9459.141803-1.43743v-.89081c-152e-6-4.08455-3.342294-7.42684-7.426992-7.42684z" id="path4914" />
      <path style="fill:#ff5023;stroke-width:.15738839" d="M72.965162 236.7392H67.19908c-4.47708.0-8.139978-3.66305-8.139978-8.13997v-.97643c0-4.47707 3.663062-8.13998 8.139978-8.13998h5.766082c4.477067.0 8.139965 3.66308 8.139965 8.13998v.97643c0 4.47692-3.663062 8.13997-8.139965 8.13997z" id="path4916" />
      <path style="fill:#ff2a2a;stroke-width:.15738839" d="m81.105127 227.62265c0-4.47708-3.663062-8.13998-8.139965-8.13998H67.19908c-4.47708.0-8.139978 3.66306-8.139978 8.13998v.97643c0 .6829.08628 1.34677.246631 1.98168.09045.0433 4.061247 1.64156 10.776539 1.64156 6.441274.0 10.685889-1.59829 10.776539-1.64156.160384-.63491.246619-1.29878.246619-1.98168v-.97643z" id="path4918" />
      <path style="fill:#ff6243;stroke-width:.15738839" d="m82.566951 221.51221c0 6.89519-5.589652 7.48839-12.484994 7.48839-6.895343.0-12.484982-.5932-12.484982-7.48839.0-6.89518 5.589791-26.106 12.485133-26.106 6.895191.0 12.484843 19.21097 12.484843 26.106z" id="path4920" />
      <g transform="matrix(0.22897009,0,0,0.22897009,11.592868,174.3166)" id="g4934">
        <path style="fill:#1d1d1f" d="m238.568 109.029c-2.43.0-4.798-.982-6.503-2.7-1.719-1.706-2.7-4.087-2.7-6.503.0-2.418.981-4.798 2.7-6.504 1.705-1.718 4.073-2.699 6.503-2.699 2.429.0 4.798.981 6.503 2.699 1.719 1.706 2.7 4.087 2.7 6.504.0 2.417-.981 4.798-2.7 6.503-1.705 1.717-4.074 2.7-6.503 2.7z" id="path4930" />
        <path style="fill:#1d1d1f" d="m273.432 109.029c-2.43.0-4.798-.982-6.503-2.7-1.719-1.706-2.7-4.087-2.7-6.503.0-2.418.981-4.798 2.7-6.504 1.705-1.718 4.073-2.699 6.503-2.699 2.429.0 4.798.981 6.503 2.699 1.719 1.706 2.7 4.087 2.7 6.504.0 2.417-.981 4.798-2.7 6.503-1.705 1.717-4.074 2.7-6.503 2.7z" id="path4932" />
      </g>
      <path style="fill:#fff;stroke-width:.07083669" d="m86.634202 197.07059c1.071763 2.00011 3.050502 2.35231 4.419759.78678 1.369257-1.56551 1.610388-4.45592.538625-6.45602-1.07175-2.00009-5.211108-6.38437-6.580364-4.81892-1.369257 1.56553.55023 8.48807 1.62198 10.48816z" id="path4888-8" />
      <path style="fill:#fff;stroke-width:.07282047" d="m53.368066 197.26126c-1.132617 2.0001-3.223741 2.35232-4.670767.78679-1.447027-1.56553-1.701845-4.45593-.569216-6.45602 1.132616-2.00011 5.507062-6.38437 6.954089-4.81893 1.447027 1.56553-.581477 8.48806-1.714106 10.48816z" id="path4888-8-8" />
      <path style="fill:#cd2a00;stroke:none;stroke-width:.26458332px;stroke-linecap:butt;stroke-linejoin:miter;stroke-opacity:1" d="m93.009796 173.38784c-.234264.14367-3.181109-2.23305-3.406383-7.81763-.07872-1.98179.25278-4.1757 1.164192-6.33755.32301-.76617.702736-1.48912 1.128454-2.16311.687864-1.08286 1.40878-1.95494 1.977671-2.76829.658642-.9679 1.123118-1.76614 1.334361-2.60285.686021-2.47613-.758918-4.35118-.461048-4.63662-.218884.20975 2.956723.41641 2.478926 4.98508-.145383 1.22336-.610559 2.41359-1.30355 3.56234-.562712.95725-1.236173 1.86913-1.798886 2.82638-.339124.57316-.64733 1.18249-.917766 1.82454-.761659 1.8083-1.123495 3.6328-1.20206 5.31008-.212003 4.45665 1.459001 7.53987 1.006089 7.81763z" id="path13448" transform="matrix(0.9511392,0,0,0.9511392,-24.702263,38.748932)" />
      <path transform="matrix(-0.9511392,0,0,0.9511392,164.84372,38.42826)" style="fill:#cd2a00;stroke:none;stroke-width:.26458332px;stroke-linecap:butt;stroke-linejoin:miter;stroke-opacity:1" d="m93.009796 173.38784c-.234264.14367-3.181109-2.23305-3.406383-7.81763-.07872-1.98179.25278-4.1757 1.164192-6.33755.32301-.76617.702736-1.48912 1.128454-2.16311.687864-1.08286 1.40878-1.95494 1.977671-2.76829.658642-.9679 1.123118-1.76614 1.334361-2.60285.686021-2.47613-.758918-4.35118-.461048-4.63662-.218884.20975 2.956723.41641 2.478926 4.98508-.145383 1.22336-.610559 2.41359-1.30355 3.56234-.562712.95725-1.236173 1.86913-1.798886 2.82638-.339124.57316-.64733 1.18249-.917766 1.82454-.761659 1.8083-1.123495 3.6328-1.20206 5.31008-.212003 4.45665 1.459001 7.53987 1.006089 7.81763z" id="path13448-7" />
    </g>
  </g>
</svg>